<?xml version="1.0" encoding="utf-8"?>
<!-- Generator: Adobe Illustrator 26.0.3, SVG Export Plug-In . SVG Version: 6.00 Build 0)  -->
<svg version="1.1" id="Слой_1" xmlns="http://www.w3.org/2000/svg" xmlns:xlink="http://www.w3.org/1999/xlink" x="0px" y="0px"
	 viewBox="0 0 1366 768" style="enable-background:new 0 0 1366 768;" xml:space="preserve">
<style type="text/css">
	.st0{stroke:#000000;stroke-miterlimit:10;}
</style>
<g>
	<path d="M410.54,280.96v37.99c-2.32-0.98-4.11-1.46-5.38-1.46c-2.43,0-4.51,1.11-6.25,3.32c-1.74,2.21-2.61,4.88-2.61,8.01
		c0,2.67,0.95,6.05,2.85,10.16l2.45,5.27c4.43,9.51,6.65,18.69,6.65,27.54c0,12.96-3.73,23.93-11.19,32.91
		c-7.46,8.98-16.57,13.48-27.33,13.48c-5.17,0-10.28-1.46-15.35-4.39V375.2c3.06,2.41,5.77,3.61,8.15,3.61c2.79,0,5.13-0.99,7-2.98
		c1.87-1.99,2.81-4.48,2.81-7.47c0-1.95-1.5-6.22-4.51-12.79c-4.8-10.42-7.2-20.83-7.2-31.25c0-12.56,3.62-23.39,10.88-32.47
		c7.25-9.08,15.91-13.62,25.99-13.62C401.92,278.23,406.27,279.14,410.54,280.96z"/>
	<path d="M452.47,450.88h-29.58v-81.25c0-14.91,3.16-27.05,9.49-36.43c3.64-5.4,8.27-9.7,13.88-12.89
		c5.62-3.19,11.38-4.79,17.28-4.79c11.76,0,21.67,4.88,29.74,14.65s12.1,21.75,12.1,35.94c0,13.8-4.01,25.72-12.02,35.74
		c-8.02,10.03-17.51,15.04-28.48,15.04c-1.79,0-4.43-0.23-7.91-0.68v-40.23c2.43,2.41,4.85,3.61,7.28,3.61c3.06,0,5.68-1.4,7.87-4.2
		c2.19-2.8,3.28-6.12,3.28-9.96c0-3.84-1.13-7.11-3.4-9.81c-2.27-2.7-4.98-4.05-8.15-4.05c-7.59,0-11.39,6.48-11.39,19.43V450.88z"
		/>
	<path d="M562.19,378.32v37.79c-2.43,0.52-4.64,0.78-6.64,0.78c-11.87,0-21.75-4.82-29.66-14.45c-7.91-9.63-11.87-21.71-11.87-36.23
		c0-14.13,4-26.11,11.98-35.94c7.99-9.83,17.71-14.75,29.15-14.75c12.76,0,22.82,4.61,30.18,13.82
		c7.36,9.21,11.04,21.79,11.04,37.74v47.75h-29.58v-45.12c0-5.14-1.02-9.24-3.04-12.3c-2.03-3.06-4.76-4.59-8.19-4.59
		c-3.11,0-5.8,1.4-8.07,4.2c-2.27,2.8-3.4,6.12-3.4,9.96c0,4.04,1.03,7.36,3.08,9.96c2.06,2.6,4.67,3.91,7.83,3.91
		C557.57,380.86,559.97,380.02,562.19,378.32z"/>
	<path d="M662.02,370.02l29.35-1.37c-0.84,14.06-5.09,25.62-12.74,34.67c-7.65,9.05-16.96,13.57-27.92,13.57
		c-11.6,0-21.4-4.98-29.39-14.94s-11.98-22.17-11.98-36.62c0-13.74,4.03-25.49,12.1-35.25c8.07-9.77,17.75-14.65,29.03-14.65
		c9.86,0,18.56,3.84,26.1,11.52c7.54,7.68,12.23,17.48,14.08,29.39l-29.98,1.37c-2.58-4.17-5.85-6.25-9.81-6.25
		c-3.38,0-6.14,1.37-8.31,4.1s-3.24,6.19-3.24,10.35c0,4.23,1.15,7.78,3.44,10.64c2.29,2.87,5.15,4.3,8.58,4.3
		C656.35,380.86,659.91,377.25,662.02,370.02z"/>
	<path d="M781.78,372.07h-44.85c-0.69-2.8-1.03-5.37-1.03-7.71c0-3.25,0.47-6.45,1.42-9.57h15.03c-1.06-7.23-4.35-10.84-9.89-10.84
		c-3.69,0-6.7,1.94-9.02,5.81c-2.32,3.87-3.48,8.84-3.48,14.89c0,6.32,1.12,11.43,3.36,15.33c2.24,3.91,5.18,5.86,8.82,5.86
		c2.95,0,5.8-1.82,8.54-5.47l16.85,25c-7.86,7.62-16.59,11.43-26.18,11.43c-11.71,0-21.54-4.85-29.51-14.55
		c-7.96-9.7-11.95-21.71-11.95-36.04c0-14.26,4.02-26.3,12.06-36.13c8.04-9.83,17.92-14.75,29.62-14.75
		c11.44,0,21.05,4.8,28.83,14.4c7.78,9.6,11.67,21.44,11.67,35.5C782.1,366.67,781.99,368.95,781.78,372.07z"/>
	<path d="M846.96,280.96v37.99c-2.32-0.98-4.11-1.46-5.38-1.46c-2.43,0-4.51,1.11-6.25,3.32c-1.74,2.21-2.61,4.88-2.61,8.01
		c0,2.67,0.95,6.05,2.85,10.16l2.45,5.27c4.43,9.51,6.64,18.69,6.64,27.54c0,12.96-3.73,23.93-11.19,32.91
		c-7.46,8.98-16.57,13.48-27.33,13.48c-5.17,0-10.28-1.46-15.35-4.39V375.2c3.06,2.41,5.77,3.61,8.15,3.61c2.79,0,5.13-0.99,7-2.98
		c1.87-1.99,2.81-4.48,2.81-7.47c0-1.95-1.5-6.22-4.51-12.79c-4.8-10.42-7.2-20.83-7.2-31.25c0-12.56,3.63-23.39,10.88-32.47
		s15.91-13.62,25.99-13.62C838.34,278.23,842.69,279.14,846.96,280.96z"/>
	<path d="M994.34,339.07v38.28h-13.21v37.5h-29.58v-82.71c0-9.31,1.29-17.25,3.88-23.83c3.27-8.4,8.24-15.25,14.91-20.56
		c6.67-5.31,13.62-7.96,20.84-7.96l3.16,0.1v38.28c-0.69-0.06-1.19-0.1-1.5-0.1c-3.75,0-6.63,1.53-8.66,4.59
		c-2.03,3.06-3.05,7.42-3.05,13.09v3.32H994.34z"/>
	<path d="M1033.65,281.55v37.3h13.29v38.57h-13.29c0,7.75,0.99,13.09,2.97,16.02s5.6,4.39,10.88,4.39v38.38
		c-1.53,0.06-2.66,0.1-3.4,0.1c-6.7,0-13.01-1.92-18.95-5.76c-5.93-3.84-10.69-9.05-14.28-15.62c-4.54-8.4-6.8-19.53-6.8-33.4
		v-79.98H1033.65z"/>
	<path d="M1817.91,287.1v37.99c-2.32-0.98-4.11-1.46-5.38-1.46c-2.43,0-4.51,1.11-6.25,3.32c-1.74,2.21-2.61,4.88-2.61,8.01
		c0,2.67,0.95,6.05,2.85,10.16l2.45,5.27c4.43,9.51,6.65,18.69,6.65,27.54c0,12.96-3.73,23.93-11.19,32.91
		c-7.46,8.98-16.57,13.48-27.33,13.48c-5.17,0-10.28-1.46-15.35-4.39v-38.57c3.06,2.41,5.77,3.61,8.15,3.61c2.79,0,5.13-0.99,7-2.98
		c1.87-1.99,2.81-4.48,2.81-7.47c0-1.95-1.5-6.22-4.51-12.79c-4.8-10.42-7.2-20.83-7.2-31.25c0-12.56,3.62-23.39,10.88-32.47
		c7.25-9.08,15.91-13.62,25.99-13.62C1809.29,284.37,1813.64,285.28,1817.91,287.1z"/>
	<path d="M1891.47,287.1v37.99c-2.32-0.98-4.11-1.46-5.38-1.46c-2.43,0-4.51,1.11-6.25,3.32c-1.74,2.21-2.61,4.88-2.61,8.01
		c0,2.67,0.95,6.05,2.85,10.16l2.45,5.27c4.43,9.51,6.65,18.69,6.65,27.54c0,12.96-3.73,23.93-11.19,32.91
		c-7.46,8.98-16.57,13.48-27.33,13.48c-5.17,0-10.28-1.46-15.35-4.39v-38.57c3.06,2.41,5.77,3.61,8.15,3.61c2.79,0,5.13-0.99,7-2.98
		c1.87-1.99,2.81-4.48,2.81-7.47c0-1.95-1.5-6.22-4.51-12.79c-4.8-10.42-7.2-20.83-7.2-31.25c0-12.56,3.62-23.39,10.88-32.47
		c7.25-9.08,15.91-13.62,25.99-13.62C1882.84,284.37,1887.19,285.28,1891.47,287.1z"/>
</g>
<path class="st0" d="M948.86,376.06c0.18-1.7,0.27-3.43,0.27-5.18c0-1.9-0.11-3.78-0.32-5.63l-2.72-1.63
	c-0.22-1.26-0.49-2.5-0.81-3.72l1.93-2.78c-0.97-3.38-2.28-6.62-3.9-9.67l-3.67-0.42c-0.73-1.15-1.51-2.26-2.34-3.34l0.82-4.11
	c-1.96-2.44-4.15-4.69-6.53-6.73l-4.26,1.24c-1.26-0.9-2.57-1.73-3.92-2.51l-0.93-4.93c-2.41-1.27-4.93-2.36-7.55-3.23l-4.14,3.2
	c-1.58-0.37-3.18-0.66-4.82-0.87l-2.91-4.72c-1.29-0.1-2.6-0.15-3.92-0.15c-1.28,0-2.55,0.05-3.81,0.14l-3.06,4.96
	c-1.47,0.24-2.92,0.54-4.34,0.91l-4.51-3.49c-2.61,0.86-5.12,1.93-7.51,3.19l-1.12,5.94c-0.94,0.58-1.85,1.2-2.74,1.85l-5.35-1.55
	c-2.36,2.01-4.53,4.24-6.47,6.65l1.14,5.72c-0.38,0.54-0.75,1.09-1.11,1.65l-5.3,0.61c-1.6,3.01-2.9,6.21-3.87,9.55l3.05,4.4
	c-0.09,0.42-0.18,0.84-0.27,1.26l-4.42,2.64c-0.2,1.83-0.31,3.68-0.31,5.57c0,1.73,0.09,3.44,0.26,5.12l4.16,2.49
	c0.09,0.61,0.2,1.21,0.32,1.81l-2.88,4.15c0.92,3.28,2.18,6.43,3.72,9.4l4.49,0.52c0.6,1.03,1.24,2.03,1.91,3l-0.96,4.83
	c1.87,2.32,3.93,4.47,6.18,6.42l4.2-1.22c1.46,1.15,2.99,2.22,4.58,3.2l0.87,4.61c2.25,1.18,4.61,2.19,7.05,3.02l3.38-2.62
	c2.24,0.66,4.55,1.16,6.92,1.48l2.25,3.65c1.17,0.08,2.35,0.13,3.54,0.13c1.23,0,2.44-0.05,3.65-0.13l2.13-3.46
	c2.54-0.27,5.01-0.73,7.41-1.38l2.97,2.3c2.46-0.84,4.82-1.86,7.09-3.06l0.68-3.62c2.03-1.14,3.97-2.42,5.79-3.83l3.09,0.9
	c2.27-1.97,4.35-4.15,6.23-6.5l-0.63-3.19c1.14-1.5,2.18-3.08,3.12-4.71l2.87-0.33c1.56-3.01,2.82-6.2,3.75-9.52l-1.72-2.48
	c0.33-1.41,0.59-2.85,0.79-4.3L948.86,376.06z M899.12,392.84c-12.2,0-22.09-9.83-22.09-21.96s9.89-21.96,22.09-21.96
	s22.09,9.83,22.09,21.96S911.33,392.84,899.12,392.84z"/>
<path id="XMLID_734_" d="M520,510.86c-201.99-69.97-228-143.57-228-143.57C232.11,245.94,465.29,204,465.29,204
	c-248.47,23.2-202.6,158.83-202.6,158.83C299.25,469.51,444.26,520.64,501.64,537L520,510.86z"/>
<path id="XMLID_00000055686951620570695960000017808051312344131738_" d="M863.78,190.98c201.99,69.97,228,143.57,228,143.57
	c59.89,121.36-173.29,163.29-173.29,163.29c248.47-23.2,202.6-158.83,202.6-158.83c-36.56-106.67-181.57-157.81-238.94-174.17
	L863.78,190.98z"/>
<path id="XMLID_00000116917008871631406850000001902777156494336926_" d="M1911.69,402.58c-57.63,76.25-94.26,77.23-94.26,77.23
	c-62.59,8.83-51.57-95.99-51.57-95.99c-21.46,108.75,45.78,107.83,45.78,107.83c52.95-0.93,94.73-55.55,109.51-77.69L1911.69,402.58
	z"/>
<path id="XMLID_00000045604947822907066150000005100836887331743421_" d="M1743.98,304.03c57.63-76.25,94.26-77.23,94.26-77.23
	c62.59-8.83,51.57,95.99,51.57,95.99c21.46-108.75-45.78-107.83-45.78-107.83c-52.95,0.93-94.73,55.55-109.51,77.69L1743.98,304.03z
	"/>
<path class="st0" d="M1948.87,393.64c0.06-0.6,0.09-1.2,0.09-1.81c0-0.67-0.04-1.32-0.11-1.97l-0.95-0.57
	c-0.08-0.44-0.17-0.88-0.28-1.3l0.68-0.97c-0.34-1.18-0.8-2.32-1.37-3.38l-1.28-0.15c-0.26-0.4-0.53-0.79-0.82-1.17l0.29-1.44
	c-0.69-0.85-1.45-1.64-2.29-2.35l-1.49,0.43c-0.44-0.31-0.9-0.61-1.37-0.88l-0.32-1.72c-0.84-0.45-1.73-0.83-2.64-1.13l-1.45,1.12
	c-0.55-0.13-1.11-0.23-1.69-0.3l-1.02-1.65c-0.45-0.04-0.91-0.05-1.37-0.05c-0.45,0-0.89,0.02-1.33,0.05l-1.07,1.74
	c-0.51,0.08-1.02,0.19-1.52,0.32l-1.58-1.22c-0.91,0.3-1.79,0.68-2.63,1.12l-0.39,2.08c-0.33,0.2-0.65,0.42-0.96,0.65l-1.87-0.54
	c-0.83,0.7-1.58,1.48-2.27,2.33l0.4,2c-0.13,0.19-0.26,0.38-0.39,0.58l-1.86,0.21c-0.56,1.06-1.02,2.17-1.35,3.34l1.07,1.54
	c-0.03,0.15-0.06,0.29-0.09,0.44l-1.55,0.93c-0.07,0.64-0.11,1.29-0.11,1.95c0,0.6,0.03,1.2,0.09,1.79l1.46,0.87
	c0.03,0.21,0.07,0.42,0.11,0.64l-1.01,1.45c0.32,1.15,0.76,2.25,1.3,3.29l1.57,0.18c0.21,0.36,0.43,0.71,0.67,1.05l-0.34,1.69
	c0.65,0.81,1.38,1.56,2.16,2.25l1.47-0.43c0.51,0.4,1.05,0.78,1.6,1.12l0.3,1.61c0.79,0.41,1.61,0.77,2.47,1.06l1.18-0.92
	c0.78,0.23,1.59,0.41,2.42,0.52l0.79,1.28c0.41,0.03,0.82,0.04,1.24,0.04c0.43,0,0.86-0.02,1.28-0.05l0.75-1.21
	c0.89-0.09,1.75-0.26,2.59-0.48l1.04,0.8c0.86-0.29,1.69-0.65,2.48-1.07l0.24-1.27c0.71-0.4,1.39-0.85,2.03-1.34l1.08,0.31
	c0.79-0.69,1.52-1.45,2.18-2.27l-0.22-1.12c0.4-0.53,0.76-1.08,1.09-1.65l1-0.12c0.55-1.05,0.99-2.17,1.31-3.33l-0.6-0.87
	c0.12-0.49,0.21-1,0.28-1.51L1948.87,393.64z M1931.47,399.52c-4.27,0-7.73-3.44-7.73-7.69c0-4.25,3.46-7.69,7.73-7.69
	c4.27,0,7.73,3.44,7.73,7.69C1939.2,396.08,1935.74,399.52,1931.47,399.52z"/>
<path class="st0" d="M1742.98,315.64c0.06-0.6,0.09-1.2,0.09-1.81c0-0.67-0.04-1.32-0.11-1.97l-0.95-0.57
	c-0.08-0.44-0.17-0.88-0.28-1.3l0.68-0.97c-0.34-1.18-0.8-2.32-1.37-3.38l-1.28-0.15c-0.26-0.4-0.53-0.79-0.82-1.17l0.29-1.44
	c-0.69-0.85-1.45-1.64-2.29-2.35l-1.49,0.43c-0.44-0.31-0.9-0.61-1.37-0.88l-0.32-1.72c-0.84-0.45-1.73-0.83-2.64-1.13l-1.45,1.12
	c-0.55-0.13-1.11-0.23-1.69-0.3l-1.02-1.65c-0.45-0.04-0.91-0.05-1.37-0.05c-0.45,0-0.89,0.02-1.33,0.05l-1.07,1.74
	c-0.51,0.08-1.02,0.19-1.52,0.32l-1.58-1.22c-0.91,0.3-1.79,0.68-2.63,1.12l-0.39,2.08c-0.33,0.2-0.65,0.42-0.96,0.65l-1.87-0.54
	c-0.83,0.7-1.58,1.48-2.27,2.33l0.4,2c-0.13,0.19-0.26,0.38-0.39,0.58l-1.86,0.21c-0.56,1.06-1.02,2.17-1.35,3.34l1.07,1.54
	c-0.03,0.15-0.06,0.29-0.09,0.44l-1.55,0.93c-0.07,0.64-0.11,1.29-0.11,1.95c0,0.6,0.03,1.2,0.09,1.79l1.46,0.87
	c0.03,0.21,0.07,0.42,0.11,0.64l-1.01,1.45c0.32,1.15,0.76,2.25,1.3,3.29l1.57,0.18c0.21,0.36,0.43,0.71,0.67,1.05l-0.34,1.69
	c0.65,0.81,1.38,1.56,2.16,2.25l1.47-0.43c0.51,0.4,1.05,0.78,1.6,1.12l0.3,1.61c0.79,0.41,1.61,0.77,2.47,1.06l1.18-0.92
	c0.78,0.23,1.59,0.41,2.42,0.52l0.79,1.28c0.41,0.03,0.82,0.04,1.24,0.04c0.43,0,0.86-0.02,1.28-0.05l0.75-1.21
	c0.89-0.09,1.75-0.26,2.59-0.48l1.04,0.8c0.86-0.29,1.69-0.65,2.48-1.07l0.24-1.27c0.71-0.4,1.39-0.85,2.03-1.34l1.08,0.31
	c0.79-0.69,1.52-1.45,2.18-2.27l-0.22-1.12c0.4-0.53,0.76-1.08,1.09-1.65l1-0.12c0.55-1.05,0.99-2.17,1.31-3.33l-0.6-0.87
	c0.12-0.49,0.21-1,0.28-1.51L1742.98,315.64z M1725.57,321.52c-4.27,0-7.73-3.44-7.73-7.69c0-4.25,3.46-7.69,7.73-7.69
	s7.73,3.44,7.73,7.69C1733.31,318.08,1729.84,321.52,1725.57,321.52z"/>
</svg>
